{
    "asset" : {
        "generator" : "Khronos glTF Blender I/O v0.9.36",
        "version" : "2.0"
    },
    "scene" : 0,
    "scenes" : [
        {
            "name" : "Scene",
            "nodes" : [
                0
            ]
        }
    ],
    "nodes" : [
        {
            "mesh" : 0,
            "name" : "tree.011",
            "rotation" : [
                0.7071068286895752,
                0,
                0,
                0.7071067094802856
            ]
        }
    ],
    "materials" : [
        {
            "doubleSided" : true,
            "name" : "tree.003",
            "normalTexture" : {
                "index" : 0,
                "scale" : 6,
                "texCoord" : 0
            },
            "pbrMetallicRoughness" : {
                "baseColorTexture" : {
                    "index" : 1,
                    "texCoord" : 0
                },
                "metallicFactor" : 0,
                "metallicRoughnessTexture" : {
                    "index" : 2,
                    "texCoord" : 0
                }
            }
        }
    ],
    "meshes" : [
        {
            "name" : "tree.011",
            "primitives" : [
                {
                    "attributes" : {
                        "POSITION" : 0,
                        "NORMAL" : 1,
                        "TANGENT" : 2,
                        "TEXCOORD_0" : 3
                    },
                    "indices" : 4,
                    "material" : 0
                }
            ]
        }
    ],
    "textures" : [
        {
            "source" : 0
        },
        {
            "source" : 1
        },
        {
            "source" : 2
        }
    ],
    "images" : [
        {
            "mimeType" : "image/png",
            "name" : "tree_n",
            "uri" : "tree_n.png"
        },
        {
            "mimeType" : "image/png",
            "name" : "tree",
            "uri" : "tree.png"
        },
        {
            "mimeType" : "image/png",
            "name" : "tree_s",
            "uri" : "tree_s.png"
        }
    ],
    "accessors" : [
        {
            "bufferView" : 0,
            "componentType" : 5126,
            "count" : 1230,
            "max" : [
                1.8064630031585693,
                4.026801109313965,
                1.234326958656311
            ],
            "min" : [
                -1.5169700384140015,
                -0.3069539964199066,
                -1.6025490760803223
            ],
            "type" : "VEC3"
        },
        {
            "bufferView" : 1,
            "componentType" : 5126,
            "count" : 1230,
            "type" : "VEC3"
        },
        {
            "bufferView" : 2,
            "componentType" : 5126,
            "count" : 1230,
            "type" : "VEC4"
        },
        {
            "bufferView" : 3,
            "componentType" : 5126,
            "count" : 1230,
            "type" : "VEC2"
        },
        {
            "bufferView" : 4,
            "componentType" : 5123,
            "count" : 3471,
            "type" : "SCALAR"
        }
    ],
    "bufferViews" : [
        {
            "buffer" : 0,
            "byteLength" : 14760,
            "byteOffset" : 0
        },
        {
            "buffer" : 0,
            "byteLength" : 14760,
            "byteOffset" : 14760
        },
        {
            "buffer" : 0,
            "byteLength" : 19680,
            "byteOffset" : 29520
        },
        {
            "buffer" : 0,
            "byteLength" : 9840,
            "byteOffset" : 49200
        },
        {
            "buffer" : 0,
            "byteLength" : 6942,
            "byteOffset" : 59040
        }
    ],
    "buffers" : [
        {
            "byteLength" : 65984,
            "uri" : "tree-3.bin"
        }
    ]
}
