{
    "asset" : {
        "generator" : "Khronos glTF Blender I/O v0.9.36",
        "version" : "2.0"
    },
    "scene" : 0,
    "scenes" : [
        {
            "name" : "Scene",
            "nodes" : [
                0
            ]
        }
    ],
    "nodes" : [
        {
            "mesh" : 0,
            "name" : "Tree Low Poly"
        }
    ],
    "materials" : [
        {
            "doubleSided" : true,
            "name" : "Material",
            "normalTexture" : {
                "index" : 0,
                "texCoord" : 0
            },
            "pbrMetallicRoughness" : {
                "baseColorTexture" : {
                    "index" : 1,
                    "texCoord" : 0
                },
                "metallicFactor" : 0,
                "roughnessFactor" : 0.4000000059604645
            }
        }
    ],
    "meshes" : [
        {
            "name" : "Plane.001",
            "primitives" : [
                {
                    "attributes" : {
                        "POSITION" : 0,
                        "NORMAL" : 1,
                        "TANGENT" : 2,
                        "TEXCOORD_0" : 3
                    },
                    "indices" : 4,
                    "material" : 0
                }
            ]
        }
    ],
    "textures" : [
        {
            "source" : 0
        },
        {
            "source" : 1
        }
    ],
    "images" : [
        {
            "mimeType" : "image/png",
            "name" : "Tree Normal",
            "uri" : "Tree Normal.png"
        },
        {
            "mimeType" : "image/png",
            "name" : "Tree Diffuse",
            "uri" : "Tree Diffuse.png"
        }
    ],
    "accessors" : [
        {
            "bufferView" : 0,
            "componentType" : 5126,
            "count" : 663,
            "max" : [
                1.5702173709869385,
                4.053038120269775,
                1.6446934938430786
            ],
            "min" : [
                -2.5568535327911377,
                -0.20925064384937286,
                -2.0374786853790283
            ],
            "type" : "VEC3"
        },
        {
            "bufferView" : 1,
            "componentType" : 5126,
            "count" : 663,
            "type" : "VEC3"
        },
        {
            "bufferView" : 2,
            "componentType" : 5126,
            "count" : 663,
            "type" : "VEC4"
        },
        {
            "bufferView" : 3,
            "componentType" : 5126,
            "count" : 663,
            "type" : "VEC2"
        },
        {
            "bufferView" : 4,
            "componentType" : 5123,
            "count" : 2484,
            "type" : "SCALAR"
        }
    ],
    "bufferViews" : [
        {
            "buffer" : 0,
            "byteLength" : 7956,
            "byteOffset" : 0
        },
        {
            "buffer" : 0,
            "byteLength" : 7956,
            "byteOffset" : 7956
        },
        {
            "buffer" : 0,
            "byteLength" : 10608,
            "byteOffset" : 15912
        },
        {
            "buffer" : 0,
            "byteLength" : 5304,
            "byteOffset" : 26520
        },
        {
            "buffer" : 0,
            "byteLength" : 4968,
            "byteOffset" : 31824
        }
    ],
    "buffers" : [
        {
            "byteLength" : 36792,
            "uri" : "tree.bin"
        }
    ]
}
