{
    "asset" : {
        "generator" : "Khronos glTF Blender I/O v0.9.36",
        "version" : "2.0"
    },
    "scene" : 0,
    "scenes" : [
        {
            "name" : "Scene",
            "nodes" : [
                0
            ]
        }
    ],
    "nodes" : [
        {
            "mesh" : 0,
            "name" : "tree.016",
            "rotation" : [
                0.7071068286895752,
                0,
                0,
                0.7071067094802856
            ]
        }
    ],
    "materials" : [
        {
            "doubleSided" : true,
            "name" : "tree.003",
            "normalTexture" : {
                "index" : 0,
                "scale" : 6,
                "texCoord" : 0
            },
            "pbrMetallicRoughness" : {
                "baseColorTexture" : {
                    "index" : 1,
                    "texCoord" : 0
                },
                "metallicFactor" : 0,
                "metallicRoughnessTexture" : {
                    "index" : 2,
                    "texCoord" : 0
                }
            }
        }
    ],
    "meshes" : [
        {
            "name" : "tree.016",
            "primitives" : [
                {
                    "attributes" : {
                        "POSITION" : 0,
                        "NORMAL" : 1,
                        "TANGENT" : 2,
                        "TEXCOORD_0" : 3
                    },
                    "indices" : 4,
                    "material" : 0
                }
            ]
        }
    ],
    "textures" : [
        {
            "source" : 0
        },
        {
            "source" : 1
        },
        {
            "source" : 2
        }
    ],
    "images" : [
        {
            "mimeType" : "image/png",
            "name" : "tree_n",
            "uri" : "tree_n.png"
        },
        {
            "mimeType" : "image/png",
            "name" : "tree",
            "uri" : "tree.png"
        },
        {
            "mimeType" : "image/png",
            "name" : "tree_s",
            "uri" : "tree_s.png"
        }
    ],
    "accessors" : [
        {
            "bufferView" : 0,
            "componentType" : 5126,
            "count" : 1025,
            "max" : [
                3.4562623500823975,
                9.08827018737793,
                2.960010290145874
            ],
            "min" : [
                -2.135863780975342,
                -0.5710873603820801,
                -2.6024436950683594
            ],
            "type" : "VEC3"
        },
        {
            "bufferView" : 1,
            "componentType" : 5126,
            "count" : 1025,
            "type" : "VEC3"
        },
        {
            "bufferView" : 2,
            "componentType" : 5126,
            "count" : 1025,
            "type" : "VEC4"
        },
        {
            "bufferView" : 3,
            "componentType" : 5126,
            "count" : 1025,
            "type" : "VEC2"
        },
        {
            "bufferView" : 4,
            "componentType" : 5123,
            "count" : 2826,
            "type" : "SCALAR"
        }
    ],
    "bufferViews" : [
        {
            "buffer" : 0,
            "byteLength" : 12300,
            "byteOffset" : 0
        },
        {
            "buffer" : 0,
            "byteLength" : 12300,
            "byteOffset" : 12300
        },
        {
            "buffer" : 0,
            "byteLength" : 16400,
            "byteOffset" : 24600
        },
        {
            "buffer" : 0,
            "byteLength" : 8200,
            "byteOffset" : 41000
        },
        {
            "buffer" : 0,
            "byteLength" : 5652,
            "byteOffset" : 49200
        }
    ],
    "buffers" : [
        {
            "byteLength" : 54852,
            "uri" : "tree-2.bin"
        }
    ]
}
