{
    "asset" : {
        "generator" : "Khronos glTF Blender I/O v0.9.36",
        "version" : "2.0"
    },
    "scene" : 0,
    "scenes" : [
        {
            "name" : "Scene",
            "nodes" : [
                0
            ]
        }
    ],
    "nodes" : [
        {
            "mesh" : 0,
            "name" : "Plane.000",
            "rotation" : [
                -0.12240976840257645,
                0.9142819046974182,
                -0.09379307925701141,
                0.3745761811733246
            ],
            "scale" : [
                1,
                0.8046237230300903,
                1
            ],
            "translation" : [
                -0.10107065737247467,
                -0.013905775733292103,
                -0.18550080060958862
            ]
        }
    ],
    "materials" : [
        {
            "doubleSided" : true,
            "name" : "Material.001",
            "pbrMetallicRoughness" : {
                "baseColorTexture" : {
                    "index" : 0,
                    "texCoord" : 0
                },
                "metallicFactor" : 0,
                "roughnessFactor" : 0.5
            }
        }
    ],
    "meshes" : [
        {
            "name" : "Plane.000",
            "primitives" : [
                {
                    "attributes" : {
                        "POSITION" : 0,
                        "NORMAL" : 1,
                        "TANGENT" : 2,
                        "TEXCOORD_0" : 3
                    },
                    "indices" : 4,
                    "material" : 0
                }
            ]
        }
    ],
    "textures" : [
        {
            "source" : 0
        }
    ],
    "images" : [
        {
            "mimeType" : "image/png",
            "name" : "albedo",
            "uri" : "albedo.png"
        }
    ],
    "accessors" : [
        {
            "bufferView" : 0,
            "componentType" : 5126,
            "count" : 176,
            "max" : [
                0.11694104969501495,
                0.6169977188110352,
                0.32063281536102295
            ],
            "min" : [
                -0.7042124271392822,
                -0.14128123223781586,
                -0.5529096722602844
            ],
            "type" : "VEC3"
        },
        {
            "bufferView" : 1,
            "componentType" : 5126,
            "count" : 176,
            "type" : "VEC3"
        },
        {
            "bufferView" : 2,
            "componentType" : 5126,
            "count" : 176,
            "type" : "VEC4"
        },
        {
            "bufferView" : 3,
            "componentType" : 5126,
            "count" : 176,
            "type" : "VEC2"
        },
        {
            "bufferView" : 4,
            "componentType" : 5123,
            "count" : 366,
            "type" : "SCALAR"
        }
    ],
    "bufferViews" : [
        {
            "buffer" : 0,
            "byteLength" : 2112,
            "byteOffset" : 0
        },
        {
            "buffer" : 0,
            "byteLength" : 2112,
            "byteOffset" : 2112
        },
        {
            "buffer" : 0,
            "byteLength" : 2816,
            "byteOffset" : 4224
        },
        {
            "buffer" : 0,
            "byteLength" : 1408,
            "byteOffset" : 7040
        },
        {
            "buffer" : 0,
            "byteLength" : 732,
            "byteOffset" : 8448
        }
    ],
    "buffers" : [
        {
            "byteLength" : 9180,
            "uri" : "grass.bin"
        }
    ]
}
