{
    "asset" : {
        "generator" : "Khronos glTF Blender I/O v0.9.36",
        "version" : "2.0"
    },
    "scene" : 0,
    "scenes" : [
        {
            "name" : "Scene",
            "nodes" : [
                0
            ]
        }
    ],
    "nodes" : [
        {
            "mesh" : 0,
            "name" : "Tree Low Poly"
        }
    ],
    "materials" : [
        {
            "doubleSided" : true,
            "name" : "Material",
            "normalTexture" : {
                "index" : 0,
                "texCoord" : 0
            },
            "pbrMetallicRoughness" : {
                "baseColorTexture" : {
                    "index" : 1,
                    "texCoord" : 0
                },
                "metallicFactor" : 0,
                "roughnessFactor" : 1.0
            }
        }
    ],
    "meshes" : [
        {
            "name" : "Plane.001",
            "primitives" : [
                {
                    "attributes" : {
                        "POSITION" : 0,
                        "NORMAL" : 1,
                        "TEXCOORD_0" : 2
                    },
                    "indices" : 3,
                    "material" : 0
                }
            ]
        }
    ],
    "textures" : [
        {
            "source" : 0
        },
        {
            "source" : 1
        }
    ],
    "images" : [
        {
            "mimeType" : "image/png",
            "name" : "Tree Normal",
            "uri" : "Tree Normal.png"
        },
        {
            "mimeType" : "image/png",
            "name" : "Tree Diffuse",
            "uri" : "Tree Diffuse.png"
        }
    ],
    "accessors" : [
        {
            "bufferView" : 0,
            "componentType" : 5126,
            "count" : 1838,
            "max" : [
                1.6243293285369873,
                4.1743483543396,
                1.8217743635177612
            ],
            "min" : [
                -2.536541700363159,
                -0.20925064384937286,
                -2.2384254932403564
            ],
            "type" : "VEC3"
        },
        {
            "bufferView" : 1,
            "componentType" : 5126,
            "count" : 1838,
            "type" : "VEC3"
        },
        {
            "bufferView" : 2,
            "componentType" : 5126,
            "count" : 1838,
            "type" : "VEC2"
        },
        {
            "bufferView" : 3,
            "componentType" : 5123,
            "count" : 2484,
            "type" : "SCALAR"
        }
    ],
    "bufferViews" : [
        {
            "buffer" : 0,
            "byteLength" : 22056,
            "byteOffset" : 0
        },
        {
            "buffer" : 0,
            "byteLength" : 22056,
            "byteOffset" : 22056
        },
        {
            "buffer" : 0,
            "byteLength" : 14704,
            "byteOffset" : 44112
        },
        {
            "buffer" : 0,
            "byteLength" : 4968,
            "byteOffset" : 58816
        }
    ],
    "buffers" : [
        {
            "byteLength" : 63784,
            "uri" : "tree.bin"
        }
    ]
}
