{
    "asset" : {
        "generator" : "Khronos glTF Blender I/O v0.9.36",
        "version" : "2.0"
    },
    "scene" : 0,
    "scenes" : [
        {
            "name" : "Scene",
            "nodes" : [
                0
            ]
        }
    ],
    "nodes" : [
        {
            "mesh" : 0,
            "name" : "LP_B-Rocks_03"
        }
    ],
    "materials" : [
        {
            "doubleSided" : true,
            "name" : "Material",
            "normalTexture" : {
                "index" : 0,
                "texCoord" : 0
            },
            "pbrMetallicRoughness" : {
                "baseColorTexture" : {
                    "index" : 1,
                    "texCoord" : 0
                },
                "metallicFactor" : 0,
                "metallicRoughnessTexture" : {
                    "index" : 2,
                    "texCoord" : 0
                }
            }
        }
    ],
    "meshes" : [
        {
            "name" : "LP_B-Rocks_03",
            "primitives" : [
                {
                    "attributes" : {
                        "POSITION" : 0,
                        "NORMAL" : 1,
                        "TANGENT" : 2,
                        "TEXCOORD_0" : 3
                    },
                    "indices" : 4,
                    "material" : 0
                }
            ]
        }
    ],
    "textures" : [
        {
            "source" : 0
        },
        {
            "source" : 1
        },
        {
            "source" : 2
        }
    ],
    "images" : [
        {
            "mimeType" : "image/png",
            "name" : "Rock_Grey_001_NRM",
            "uri" : "Rock_Grey_001_NRM.png"
        },
        {
            "mimeType" : "image/png",
            "name" : "Rock_Grey_Rough_01_CLR",
            "uri" : "Rock_Grey_Rough_01_CLR.png"
        },
        {
            "mimeType" : "image/png",
            "name" : "Rock_Grey_Rough_01_SPC",
            "uri" : "Rock_Grey_Rough_01_SPC.png"
        }
    ],
    "accessors" : [
        {
            "bufferView" : 0,
            "componentType" : 5126,
            "count" : 994,
            "max" : [
                5.327395915985107,
                2.6901631355285645,
                3.6094419956207275
            ],
            "min" : [
                -5.327395915985107,
                -1.061950922012329,
                -3.6094419956207275
            ],
            "type" : "VEC3"
        },
        {
            "bufferView" : 1,
            "componentType" : 5126,
            "count" : 994,
            "type" : "VEC3"
        },
        {
            "bufferView" : 2,
            "componentType" : 5126,
            "count" : 994,
            "type" : "VEC4"
        },
        {
            "bufferView" : 3,
            "componentType" : 5126,
            "count" : 994,
            "type" : "VEC2"
        },
        {
            "bufferView" : 4,
            "componentType" : 5123,
            "count" : 2172,
            "type" : "SCALAR"
        }
    ],
    "bufferViews" : [
        {
            "buffer" : 0,
            "byteLength" : 11928,
            "byteOffset" : 0
        },
        {
            "buffer" : 0,
            "byteLength" : 11928,
            "byteOffset" : 11928
        },
        {
            "buffer" : 0,
            "byteLength" : 15904,
            "byteOffset" : 23856
        },
        {
            "buffer" : 0,
            "byteLength" : 7952,
            "byteOffset" : 39760
        },
        {
            "buffer" : 0,
            "byteLength" : 4344,
            "byteOffset" : 47712
        }
    ],
    "buffers" : [
        {
            "byteLength" : 52056,
            "uri" : "rock-2.bin"
        }
    ]
}
